<?xml version="1.0" encoding="UTF-8" standalone="no"?>
<!-- Created with Inkscape (http://www.inkscape.org/) -->

<svg
   width="500"
   height="500"
   viewBox="0 0 132.29166 132.29167"
   version="1.1"
   id="svg1"
   inkscape:version="1.4.3 (0d15f75, 2025-12-25)"
   sodipodi:docname="hug_anim.svg"
   inkscape:export-filename="icon256.png"
   inkscape:export-xdpi="120.37"
   inkscape:export-ydpi="120.37"
   xmlns:inkscape="http://www.inkscape.org/namespaces/inkscape"
   xmlns:sodipodi="http://sodipodi.sourceforge.net/DTD/sodipodi-0.dtd"
   xmlns="http://www.w3.org/2000/svg"
   xmlns:svg="http://www.w3.org/2000/svg">
  <sodipodi:namedview
     id="namedview1"
     pagecolor="#ffffff"
     bordercolor="#000000"
     borderopacity="0.25"
     inkscape:showpageshadow="2"
     inkscape:pageopacity="0.0"
     inkscape:pagecheckerboard="0"
     inkscape:deskcolor="#d1d1d1"
     inkscape:document-units="px"
     inkscape:zoom="0.33640493"
     inkscape:cx="-362.65818"
     inkscape:cy="324.01428"
     inkscape:window-width="1600"
     inkscape:window-height="930"
     inkscape:window-x="-6"
     inkscape:window-y="-6"
     inkscape:window-maximized="1"
     inkscape:current-layer="g15" />
  <defs
     id="defs1" />
  <g
     inkscape:label="Layer 1"
     inkscape:groupmode="layer"
     id="layer1"
     style="display:none">
    <g
       id="g5"
       transform="matrix(1.1858164,0,0,1.1858164,-59.02686,16.543365)"
       style="display:inline">
      <path
         style="display:inline;fill:#800080;fill-opacity:1;stroke:none;stroke-width:0.264583;stroke-linecap:round;stroke-linejoin:round"
         d="m 94.236354,67.399851 c 0,0 0.54525,-11.886444 1.50618,-24.273722 0,0 -12.846706,-12.499546 -20.246806,-4.87586 -4.899548,5.047582 0.228598,15.267172 0.50644,15.78496 5.792956,10.795774 14.486016,12.948116 18.234186,13.364622 z"
         id="path4-2"
         sodipodi:nodetypes="sssss"
         inkscape:label="telo fialove" />
      <circle
         style="display:inline;fill:#800080;fill-opacity:1;stroke:none;stroke-width:0.264583;stroke-linecap:round;stroke-linejoin:round"
         id="path5-7"
         cx="87.055756"
         cy="28.688154"
         r="6.843791"
         inkscape:label="hlava fialova" />
      <g
         id="g7"
         transform="translate(17.318377,-0.40275296)">
        <circle
           style="display:inline;fill:#f55980;fill-opacity:1;stroke:none;stroke-width:0.264583;stroke-linecap:round;stroke-linejoin:round"
           id="path5"
           cx="112.45318"
           cy="29.893726"
           r="6.843791"
           inkscape:label="hlava ruzova" />
        <g
           id="g6">
          <path
             style="display:inline;fill:#f55980;fill-opacity:1;stroke:none;stroke-width:0.264583;stroke-linecap:round;stroke-linejoin:round"
             d="m 104.0521,66.103526 c -0.036,1.263 14.26498,-2.342425 18.4039,-12.124362 4.24015,-10.021205 2.6404,-14.751363 -2.14221,-17.022114 -4.95636,-2.353246 -14.75555,4.872754 -14.75555,4.872754 0,0 -1.10322,10.12107 -1.50614,24.273722 z"
             id="path4"
             sodipodi:nodetypes="ssscs"
             inkscape:label="telo ruzove" />
          <rect
             style="fill:#f55980;fill-opacity:1;stroke-width:0.223123;stroke-linecap:round;stroke-linejoin:round"
             id="rect4"
             width="32.152504"
             height="7.6296568"
             x="55.485279"
             y="86.682533"
             rx="4.1561823"
             transform="rotate(-28.162391)" />
        </g>
      </g>
      <rect
         style="display:inline;fill:#800080;fill-opacity:1;stroke-width:0.222149;stroke-linecap:round;stroke-linejoin:round"
         id="rect4-4"
         width="31.934303"
         height="7.6148534"
         x="-120.43201"
         y="-8.3759632"
         rx="4.1279769"
         transform="matrix(-0.8798794,-0.47519706,-0.46875666,0.88332734,0,0)" />
    </g>
  </g>
  <g
     inkscape:label="Layer 1 copy"
     inkscape:groupmode="layer"
     id="g11"
     style="display:none">
    <g
       id="g10"
       transform="matrix(1.1858164,0,0,1.1858164,-59.02686,16.543365)"
       style="display:inline">
      <path
         style="display:inline;fill:#800080;fill-opacity:1;stroke:none;stroke-width:0.264583;stroke-linecap:round;stroke-linejoin:round"
         d="m 103.72134,66.562941 c 0,0 0.54525,-11.886444 1.50618,-24.273722 0,0 -12.846708,-12.499546 -20.246808,-4.87586 -4.899548,5.047582 0.228598,15.267172 0.50644,15.78496 5.792956,10.795774 14.486016,12.948116 18.234188,13.364622 z"
         id="path7"
         sodipodi:nodetypes="sssss"
         inkscape:label="telo fialove" />
      <circle
         style="display:inline;fill:#800080;fill-opacity:1;stroke:none;stroke-width:0.264583;stroke-linecap:round;stroke-linejoin:round"
         id="circle7"
         cx="96.540741"
         cy="27.851244"
         r="6.843791"
         inkscape:label="hlava fialova" />
      <g
         id="g9"
         transform="translate(12.893121,-0.40275796)">
        <circle
           style="display:inline;fill:#f55980;fill-opacity:1;stroke:none;stroke-width:0.264583;stroke-linecap:round;stroke-linejoin:round"
           id="circle8"
           cx="112.45318"
           cy="29.893726"
           r="6.843791"
           inkscape:label="hlava ruzova" />
        <g
           id="g8">
          <path
             style="display:inline;fill:#f55980;fill-opacity:1;stroke:none;stroke-width:0.264583;stroke-linecap:round;stroke-linejoin:round"
             d="m 104.0521,66.103526 c -0.036,1.263 14.26498,-2.342425 18.4039,-12.124362 4.24015,-10.021205 2.6404,-14.751363 -2.14221,-17.022114 -4.95636,-2.353246 -14.75555,4.872754 -14.75555,4.872754 0,0 -1.10322,10.12107 -1.50614,24.273722 z"
             id="path8"
             sodipodi:nodetypes="ssscs"
             inkscape:label="telo ruzove" />
          <rect
             style="fill:#f55980;fill-opacity:1;stroke-width:0.223123;stroke-linecap:round;stroke-linejoin:round"
             id="rect8"
             width="32.152504"
             height="7.6296568"
             x="55.485279"
             y="86.682533"
             rx="4.1561823"
             transform="rotate(-28.162391)" />
        </g>
      </g>
      <rect
         style="display:inline;fill:#800080;fill-opacity:1;stroke-width:0.222149;stroke-linecap:round;stroke-linejoin:round"
         id="rect9"
         width="31.934303"
         height="7.6148534"
         x="-128.41826"
         y="-13.61972"
         rx="4.1279769"
         transform="matrix(-0.8798794,-0.47519706,-0.46875666,0.88332734,0,0)" />
    </g>
  </g>
  <g
     inkscape:label="Layer 1 copy"
     inkscape:groupmode="layer"
     id="g15"
     style="display:inline">
    <g
       id="g14"
       transform="matrix(1.1858164,0,0,1.1858164,-59.02686,16.543365)"
       style="display:inline">
      <path
         style="display:inline;fill:#800080;fill-opacity:1;stroke:none;stroke-width:0.264583;stroke-linecap:round;stroke-linejoin:round"
         d="m 106.54019,66.562941 c 0,0 0.54525,-11.886444 1.50618,-24.273722 0,0 -12.84671,-12.499546 -20.24681,-4.87586 -4.899548,5.047582 0.228598,15.267172 0.50644,15.78496 5.792956,10.795774 14.48602,12.948116 18.23419,13.364622 z"
         id="path11"
         sodipodi:nodetypes="sssss"
         inkscape:label="telo fialove" />
      <circle
         style="display:inline;fill:#800080;fill-opacity:1;stroke:none;stroke-width:0.264583;stroke-linecap:round;stroke-linejoin:round"
         id="circle11"
         cx="99.359589"
         cy="27.851244"
         r="6.843791"
         inkscape:label="hlava fialova" />
      <g
         id="g13"
         transform="translate(2.347037,0.06945476)">
        <circle
           style="display:inline;fill:#f55980;fill-opacity:1;stroke:none;stroke-width:0.264583;stroke-linecap:round;stroke-linejoin:round"
           id="circle12"
           cx="112.45318"
           cy="29.893726"
           r="6.843791"
           inkscape:label="hlava ruzova" />
        <g
           id="g12">
          <path
             style="display:inline;fill:#f55980;fill-opacity:1;stroke:none;stroke-width:0.264583;stroke-linecap:round;stroke-linejoin:round"
             d="m 104.0521,66.103526 c -0.036,1.263 14.26498,-2.342425 18.4039,-12.124362 4.24015,-10.021205 2.6404,-14.751363 -2.14221,-17.022114 -4.95636,-2.353246 -14.75555,4.872754 -14.75555,4.872754 0,0 -1.10322,10.12107 -1.50614,24.273722 z"
             id="path12"
             sodipodi:nodetypes="ssscs"
             inkscape:label="telo ruzove" />
          <rect
             style="fill:#f55980;fill-opacity:1;stroke-width:0.223123;stroke-linecap:round;stroke-linejoin:round"
             id="rect12"
             width="32.152504"
             height="7.6296568"
             x="55.485279"
             y="86.682533"
             rx="4.1561823"
             transform="rotate(-28.162391)" />
        </g>
      </g>
      <rect
         style="display:inline;fill:#800080;fill-opacity:1;stroke-width:0.222149;stroke-linecap:round;stroke-linejoin:round"
         id="rect13"
         width="31.934303"
         height="7.6148534"
         x="-130.90829"
         y="-14.959265"
         rx="4.1279769"
         transform="matrix(-0.8798794,-0.47519706,-0.46875666,0.88332734,0,0)" />
    </g>
  </g>
</svg>
