<?xml version="1.0" encoding="UTF-8" standalone="no"?>
<!-- Created with Inkscape (http://www.inkscape.org/) -->

<svg
   width="780"
   height="320"
   viewBox="0 0 206.37499 84.666668"
   version="1.1"
   id="svg1"
   xml:space="preserve"
   inkscape:version="1.4.3 (0d15f75, 2025-12-25)"
   sodipodi:docname="hug_ing.svg"
   inkscape:export-filename="logo.png"
   inkscape:export-xdpi="96"
   inkscape:export-ydpi="96"
   xmlns:inkscape="http://www.inkscape.org/namespaces/inkscape"
   xmlns:sodipodi="http://sodipodi.sourceforge.net/DTD/sodipodi-0.dtd"
   xmlns="http://www.w3.org/2000/svg"
   xmlns:svg="http://www.w3.org/2000/svg"><sodipodi:namedview
     id="namedview1"
     pagecolor="#ffffff"
     bordercolor="#000000"
     borderopacity="0.25"
     inkscape:showpageshadow="2"
     inkscape:pageopacity="0.0"
     inkscape:pagecheckerboard="0"
     inkscape:deskcolor="#d1d1d1"
     inkscape:document-units="mm"
     inkscape:zoom="0.81166682"
     inkscape:cx="363.44962"
     inkscape:cy="104.72277"
     inkscape:window-width="1600"
     inkscape:window-height="930"
     inkscape:window-x="-6"
     inkscape:window-y="-6"
     inkscape:window-maximized="1"
     inkscape:current-layer="layer1" /><defs
     id="defs1" /><g
     inkscape:label="Layer 1"
     inkscape:groupmode="layer"
     id="layer1"
     style="display:inline"><g
       id="text1"
       style="font-size:32.6687px;font-family:'Arial Rounded MT Bold';-inkscape-font-specification:'Arial Rounded MT Bold, ';fill:#ff8080;stroke-width:0.226866;stroke-linecap:round;stroke-linejoin:round"
       aria-label="hug ing"><path
         style="fill:#800080"
         d="m 81.497125,31.411641 v 6.460364 q 0.829478,-0.957091 1.611103,-1.515394 0.797575,-0.558303 1.754666,-0.829479 0.957091,-0.287127 2.057746,-0.287127 1.658957,0 2.935078,0.701866 1.292073,0.701867 2.025842,2.041794 0.462594,0.781624 0.62211,1.754667 0.159515,0.957091 0.159515,2.21726 v 8.342642 q 0,1.308024 -0.606158,1.977988 -0.590206,0.669963 -1.5792,0.669963 -2.153454,0 -2.153454,-2.647951 v -7.353648 q 0,-2.089648 -0.622109,-3.206254 -0.622109,-1.132558 -2.360824,-1.132558 -1.164461,0 -2.1056,0.669964 -0.925188,0.654012 -1.387782,1.802521 -0.350933,0.973042 -0.350933,3.461478 v 5.758497 q 0,1.292073 -0.590206,1.977988 -0.574255,0.669963 -1.611103,0.669963 -2.153455,0 -2.153455,-2.647951 V 31.411641 q 0,-1.323975 0.558303,-1.977988 0.574255,-0.669963 1.595152,-0.669963 1.036848,0 1.611103,0.669963 0.590206,0.669964 0.590206,1.977988 z m 26.782595,19.078011 v -0.558303 q -0.78163,0.988994 -1.64301,1.658958 -0.86138,0.669963 -1.88228,0.988994 -1.02089,0.334981 -2.32892,0.334981 -1.5792,0 -2.839368,-0.654012 -1.244218,-0.654012 -1.930133,-1.802521 -0.813528,-1.387781 -0.813528,-3.987878 v -8.62977 q 0,-1.308024 0.590207,-1.946084 0.590206,-0.654012 1.563248,-0.654012 0.988994,0 1.595154,0.654012 0.60615,0.654012 0.60615,1.946084 v 6.970812 q 0,1.515394 0.25523,2.552242 0.25522,1.020897 0.90924,1.611103 0.66996,0.574255 1.80252,0.574255 1.10065,0 2.07369,-0.654012 0.97305,-0.654012 1.41969,-1.706812 0.36688,-0.925188 0.36688,-4.051685 v -5.295903 q 0,-1.292072 0.60616,-1.946084 0.60616,-0.654012 1.5792,-0.654012 0.97304,0 1.56325,0.654012 0.5902,0.63806 0.5902,1.946084 v 12.617648 q 0,1.244218 -0.57425,1.866327 -0.5583,0.622109 -1.45159,0.622109 -0.89328,0 -1.48349,-0.63806 -0.57425,-0.654012 -0.57425,-1.818473 z m 24.43772,-12.059344 v 12.64955 q 0,2.169406 -0.4626,3.732655 -0.46259,1.563248 -1.48349,2.584145 -1.02089,1.020897 -2.67985,1.515394 -1.64301,0.494497 -4.09954,0.494497 -2.24916,0 -4.01978,-0.638061 -1.77062,-0.622109 -2.72771,-1.627054 -0.95709,-0.988994 -0.95709,-2.041794 0,-0.797576 0.54235,-1.308024 0.54235,-0.494497 1.30802,-0.494497 0.95709,0 1.67491,0.84543 0.35094,0.430691 0.71782,0.861382 0.38284,0.446642 0.82948,0.749721 0.46259,0.31903 1.10065,0.462594 0.63806,0.159515 1.46754,0.159515 1.69086,0 2.61605,-0.478545 0.94114,-0.462594 1.30803,-1.308025 0.38283,-0.84543 0.44664,-1.818472 0.0638,-0.957091 0.0957,-3.094594 -1.00495,1.403733 -2.32892,2.137503 -1.30803,0.73377 -3.1265,0.73377 -2.18536,0 -3.82836,-1.116606 -1.62706,-1.116606 -2.50439,-3.126497 -0.87734,-2.009891 -0.87734,-4.641891 0,-1.962036 0.5264,-3.541236 0.54236,-1.5792 1.53135,-2.663903 0.98899,-1.084703 2.28107,-1.627054 1.29207,-0.558303 2.83937,-0.558303 1.85037,0 3.20625,0.717818 1.35588,0.701866 2.52034,2.21726 V 37.61678 q 0,-1.132557 0.5583,-1.754666 0.55831,-0.622109 1.43564,-0.622109 1.26017,0 1.67491,0.829478 0.41474,0.813528 0.41474,2.360825 z m -12.61765,5.519223 q 0,2.647952 1.14851,4.003831 1.16446,1.355878 2.99888,1.355878 1.08471,0 2.0418,-0.574254 0.97304,-0.590206 1.5792,-1.754667 0.60615,-1.180412 0.60615,-2.855321 0,-2.663903 -1.18041,-4.147394 -1.16446,-1.48349 -3.07864,-1.48349 -1.86633,0 -2.99888,1.419684 -1.11661,1.419685 -1.11661,4.035733 z"
         id="path1" /><path
         style="fill:#ff5555"
         d="m 149.642,37.712489 v 12.585745 q 0,1.308024 -0.62211,1.977988 -0.62211,0.669963 -1.5792,0.669963 -0.95709,0 -1.56325,-0.685915 -0.59021,-0.685915 -0.59021,-1.962036 V 37.840101 q 0,-1.292072 0.59021,-1.946084 0.60616,-0.654012 1.56325,-0.654012 0.95709,0 1.5792,0.654012 0.62211,0.654012 0.62211,1.818472 z m -2.15346,-4.498327 q -0.90923,0 -1.56325,-0.558303 -0.63806,-0.558303 -0.63806,-1.5792 0,-0.925187 0.65402,-1.515393 0.66996,-0.606158 1.54729,-0.606158 0.84543,0 1.49945,0.542352 0.65401,0.542351 0.65401,1.579199 0,1.004946 -0.63806,1.5792 -0.63806,0.558303 -1.5154,0.558303 z m 10.60776,4.434521 v 0.5264 q 1.14851,-1.515394 2.50439,-2.21726 1.37183,-0.717818 3.14244,-0.717818 1.72277,0 3.07865,0.749721 1.35588,0.749721 2.02584,2.121551 0.43069,0.797576 0.5583,1.722764 0.12761,0.925188 0.12761,2.360824 v 8.103369 q 0,1.308024 -0.60615,1.977988 -0.59021,0.669963 -1.5473,0.669963 -0.97304,0 -1.5792,-0.685915 -0.60616,-0.685915 -0.60616,-1.962036 v -7.257939 q 0,-2.153454 -0.60616,-3.286012 -0.5902,-1.148509 -2.37677,-1.148509 -1.16446,0 -2.12155,0.701867 -0.95709,0.685915 -1.40374,1.89823 -0.31903,0.973042 -0.31903,3.636945 v 5.455418 q 0,1.323976 -0.62211,1.993939 -0.60615,0.654012 -1.5792,0.654012 -0.94113,0 -1.54729,-0.685915 -0.60616,-0.685915 -0.60616,-1.962036 V 37.712489 q 0,-1.244218 0.54235,-1.850375 0.54235,-0.622109 1.48349,-0.622109 0.57426,0 1.03685,0.271175 0.4626,0.271176 0.73377,0.813528 0.28713,0.542351 0.28713,1.323975 z m 31.79137,0.781625 v 12.64955 q 0,2.169406 -0.4626,3.732655 -0.46259,1.563248 -1.48349,2.584145 -1.02089,1.020897 -2.67985,1.515394 -1.64301,0.494497 -4.09954,0.494497 -2.24916,0 -4.01978,-0.638061 -1.77062,-0.622109 -2.72771,-1.627054 -0.95709,-0.988994 -0.95709,-2.041794 0,-0.797576 0.54235,-1.308024 0.54235,-0.494497 1.30802,-0.494497 0.95709,0 1.67491,0.84543 0.35094,0.430691 0.71782,0.861382 0.38284,0.446642 0.82948,0.749721 0.46259,0.31903 1.10065,0.462594 0.63806,0.159515 1.46754,0.159515 1.69086,0 2.61605,-0.478545 0.94114,-0.462594 1.30803,-1.308025 0.38283,-0.84543 0.44664,-1.818472 0.0638,-0.957091 0.0957,-3.094594 -1.00495,1.403733 -2.32892,2.137503 -1.30803,0.73377 -3.1265,0.73377 -2.18536,0 -3.82836,-1.116606 -1.62706,-1.116606 -2.50439,-3.126497 -0.87733,-2.009891 -0.87733,-4.641891 0,-1.962036 0.5264,-3.541236 0.54235,-1.5792 1.53134,-2.663903 0.98899,-1.084703 2.28107,-1.627054 1.29207,-0.558303 2.83937,-0.558303 1.85037,0 3.20625,0.717818 1.35588,0.701866 2.52034,2.21726 V 37.61678 q 0,-1.132557 0.5583,-1.754666 0.55831,-0.622109 1.43564,-0.622109 1.26017,0 1.67491,0.829478 0.41474,0.813528 0.41474,2.360825 z m -12.61765,5.519223 q 0,2.647952 1.14851,4.003831 1.16446,1.355878 2.99888,1.355878 1.08471,0 2.0418,-0.574254 0.97304,-0.590206 1.5792,-1.754667 0.60616,-1.180412 0.60616,-2.855321 0,-2.663903 -1.18042,-4.147394 -1.16446,-1.48349 -3.07864,-1.48349 -1.86633,0 -2.99888,1.419684 -1.11661,1.419685 -1.11661,4.035733 z"
         id="path2" /></g><path
       d="m 141.99064,52.246689 c 0,0 -0.0903,1.69967 0.1192,2.9127 0.20948,1.21302 0.14615,1.67322 -0.58398,2.37825 -0.2493,0.2493 -0.66593,0.38232 -1.14915,0.46487 -0.48323,0.0826 -0.95332,0.14247 -1.5532,0.14247 -0.54924,0 -1.04005,-0.078 -1.47243,-0.23372 -0.43238,-0.15191 -0.76543,-0.35057 -0.99914,-0.59598 -0.23372,-0.24151 -0.35058,-0.49082 -0.35058,-0.74791 0,-0.19477 0.0662,-0.35448 0.19865,-0.47912 0.13244,-0.12076 0.29215,-0.18113 0.47913,-0.18113 0.23372,0 0.43823,0.10323 0.61352,0.30968 0.0857,0.10517 0.17333,0.21034 0.26293,0.31552 0.0935,0.10907 0.19476,0.20061 0.30383,0.27462 0.11296,0.0779 0.24736,0.13438 0.40317,0.16944 0.15582,0.0389 0.335,0.0584 0.53755,0.0584 0.4129,0 0.73233,-0.0584 0.95826,-0.17529 1.0485,-0.40186 0.70612,-1.3893 0.67779,-2.27877 -0.24541,0.3428 -0.52976,0.60379 -0.85308,0.78297 -0.31942,0.17918 -0.70116,0.26877 -1.14522,0.26877 -0.53366,0 -1.0011,-0.13633 -1.40232,-0.40901 -0.39732,-0.27267 -0.7031,-0.65441 -0.91735,-1.14522 -0.21424,-0.49081 -0.32136,-1.05758 -0.32136,-1.7003 0,-0.47913 0.0643,-0.91152 0.19282,-1.29715 0.13244,-0.38564 0.31942,-0.7109 0.56093,-0.97578 0.24151,-0.26488 0.52002,-0.46354 0.83554,-0.59598 0.31553,-0.13634 1.4095,-0.21159 1.78727,-0.20451 0.97209,0.0182 1.32176,0.38478 1.53439,0.66149 0.569,-0.41724 1.41982,-0.23393 1.31182,1.74831 z m -4.77449,0.23645 c 0,0.64662 0.14023,1.13548 0.42069,1.46658 0.28437,0.3311 0.65053,0.49666 1.09849,0.49666 0.26488,0 0.51418,-0.0701 0.7479,-0.21035 0.23762,-0.14413 0.43043,-0.35838 0.57845,-0.64273 0.14802,-0.28825 0.22204,-0.63689 0.22204,-1.0459 0,-0.65052 -0.14413,-1.15691 -0.43239,-1.51917 -0.28435,-0.36226 -0.66026,-0.54339 -1.12769,-0.54339 -0.45575,0 -0.82191,0.17333 -1.09847,0.52002 -0.27269,0.34668 -0.40902,0.83944 -0.40902,1.47828 z"
       id="text4"
       style="font-size:13.9559px;font-family:'Arial Rounded MT Bold';-inkscape-font-specification:'Arial Rounded MT Bold, ';fill:#0db7b1;fill-opacity:1;stroke-width:0.0831005;stroke-linecap:round;stroke-linejoin:round"
       aria-label="g"
       sodipodi:nodetypes="czszsccscsccccscccscsscscscscscsccscscs" /><g
       id="g5"
       transform="matrix(1.1858164,0,0,1.1858164,-17.107747,27.524326)"
       style="display:none"><path
         style="display:inline;fill:#f55980;fill-opacity:1;stroke:none;stroke-width:0.264583;stroke-linecap:round;stroke-linejoin:round"
         d="m 103.67632,66.038054 c 1.73522,-0.03285 10.15468,-1.19697 17.45047,-11.975814 6.09933,-9.011195 4.21574,-15.449455 -0.813,-17.10519 -4.62406,-1.52249 -12.87114,4.950034 -14.75555,4.872754 -2.23016,-0.09146 -12.930868,-12.555067 -20.273346,-4.875868 -4.798704,5.01877 0.225338,15.268935 0.50644,15.78496 4.966915,9.117886 16.724666,13.321125 17.884986,13.299158 z"
         id="path4"
         sodipodi:nodetypes="sssssss" /><path
         style="fill:#800080;fill-opacity:1;stroke:none;stroke-width:0.264583;stroke-linecap:round;stroke-linejoin:round"
         d="m 104.05206,66.103526 c 0,0 0.26651,-10.938671 0.0411,-10.948628 -11.574429,-1.52447 -17.99285,-9.201503 -12.972942,-11.174278 1.866116,-0.733366 6.822383,3.524125 9.829352,4.344373 6.26759,1.709689 11.68949,2.35837 15.94447,0.166572 1.80049,-0.927456 2.32162,-1.765714 2.1275,-3.068661 -0.34404,-2.30928 -2.61978,-2.41488 -3.43526,-2.357613 -8.59129,0.603322 -9.34982,-0.885762 -10.02804,-1.235487 -0.78191,-0.403193 -12.846706,-12.499546 -20.246806,-4.87586 -4.899548,5.047582 0.228598,15.267172 0.50644,15.78496 6.720523,12.524391 19.394756,13.364972 18.234226,13.364622 z"
         id="path4-2"
         sodipodi:nodetypes="scssssssssss" /><circle
         style="fill:#f55980;fill-opacity:1;stroke:none;stroke-width:0.264583;stroke-linecap:round;stroke-linejoin:round"
         id="path5"
         cx="112.45318"
         cy="29.893726"
         r="6.843791" /><circle
         style="fill:#800080;fill-opacity:1;stroke:none;stroke-width:0.264583;stroke-linecap:round;stroke-linejoin:round"
         id="path5-7"
         cx="96.87146"
         cy="27.391829"
         r="6.843791" /></g><g
       id="g14"
       transform="matrix(1.1858164,0,0,1.1858164,-89.224329,-6.8655362)"
       style="display:inline"><path
         style="display:inline;fill:#800080;fill-opacity:1;stroke:none;stroke-width:0.264583;stroke-linecap:round;stroke-linejoin:round"
         d="m 106.54019,66.562941 c 0,0 0.54525,-11.886444 1.50618,-24.273722 0,0 -12.84671,-12.499546 -20.24681,-4.87586 -4.899548,5.047582 0.228598,15.267172 0.50644,15.78496 5.792956,10.795774 14.48602,12.948116 18.23419,13.364622 z"
         id="path11"
         sodipodi:nodetypes="sssss"
         inkscape:label="telo fialove" /><circle
         style="display:inline;fill:#800080;fill-opacity:1;stroke:none;stroke-width:0.264583;stroke-linecap:round;stroke-linejoin:round"
         id="circle11"
         cx="99.359589"
         cy="27.851244"
         r="6.843791"
         inkscape:label="hlava fialova" /><g
         id="g13"
         transform="translate(2.347037,0.06945476)"><circle
           style="display:inline;fill:#f55980;fill-opacity:1;stroke:none;stroke-width:0.264583;stroke-linecap:round;stroke-linejoin:round"
           id="circle12"
           cx="112.45318"
           cy="29.893726"
           r="6.843791"
           inkscape:label="hlava ruzova" /><g
           id="g12"><path
             style="display:inline;fill:#f55980;fill-opacity:1;stroke:none;stroke-width:0.264583;stroke-linecap:round;stroke-linejoin:round"
             d="m 104.0521,66.103526 c -0.036,1.263 14.26498,-2.342425 18.4039,-12.124362 4.24015,-10.021205 2.6404,-14.751363 -2.14221,-17.022114 -4.95636,-2.353246 -14.75555,4.872754 -14.75555,4.872754 0,0 -1.10322,10.12107 -1.50614,24.273722 z"
             id="path12"
             sodipodi:nodetypes="ssscs"
             inkscape:label="telo ruzove" /><rect
             style="fill:#f55980;fill-opacity:1;stroke-width:0.223123;stroke-linecap:round;stroke-linejoin:round"
             id="rect12"
             width="32.152504"
             height="7.6296568"
             x="55.485279"
             y="86.682533"
             rx="4.1561823"
             transform="rotate(-28.162391)" /></g></g><rect
         style="display:inline;fill:#800080;fill-opacity:1;stroke-width:0.222149;stroke-linecap:round;stroke-linejoin:round"
         id="rect13"
         width="31.934303"
         height="7.6148534"
         x="-130.90829"
         y="-14.959265"
         rx="4.1279769"
         transform="matrix(-0.8798794,-0.47519706,-0.46875666,0.88332734,0,0)" /></g></g></svg>
